<?xml version="1.0" encoding="utf-8"?>
<!-- Generator: Adobe Illustrator 22.0.1, SVG Export Plug-In . SVG Version: 6.00 Build 0)  -->
<svg version="1.1" id="Layer_1" xmlns="http://www.w3.org/2000/svg" xmlns:xlink="http://www.w3.org/1999/xlink" x="0px" y="0px"
	 viewBox="0 0 700 706" style="enable-background:new 0 0 700 706;" xml:space="preserve">
<style type="text/css">
	.st0{fill:#38D09E;}
	.st1{fill:#FFFFFF;}
</style>
<g>
	<path class="st0" d="M333.9,21.2C158.5,29.5,20.1,175.7,20.6,351.3c0.2,53.5,13.1,104,35.9,148.6l-35,169.8
		C19.6,679,27.9,687,37,684.8l166.3-39.4c42.7,21.3,90.7,33.6,141.5,34.4c179.3,2.7,328.7-139.7,334.3-318.9
		C685.2,168.7,526.7,12,333.9,21.2L333.9,21.2z"/>
</g>
<g>
	<g>
		<path class="st1" d="M332.9,0.4C146.5,9.3-0.6,164.6,0,351.2c0.2,56.9,13.9,110.5,38.1,157.9L0.9,689.6c-2,9.8,6.8,18.3,16.5,16
			l176.7-41.9c45.4,22.6,96.4,35.7,150.4,36.5c190.5,2.9,349.3-148.4,355.3-338.9C706.2,157.1,537.7-9.4,332.9,0.4L332.9,0.4z
			 M557.7,557.9C502.2,613.4,428.5,644,350,644c-45.9,0-89.9-10.3-130.7-30.6l-26.4-13.1L76.7,627.7L101.2,509l-13-25.5
			C67,442,56.3,397.2,56.3,350.1c0-78.5,30.6-152.3,86-207.8c55-55,129.9-86.1,207.7-86.1c78.5,0,152.2,30.6,207.7,86.1
			c55.5,55.5,86,129.3,86,207.8C643.7,427.9,612.7,502.9,557.7,557.9L557.7,557.9z"/>
	</g>
	<g>
		<path class="st1" d="M536.5,398.9l-53-53c-14.3-14.3-31.6-21.4-52-21.4c-20.7,0-38.4,7.5-53,22.4l-22.4-22.4
			c14.9-14.6,22.4-32.4,22.4-53.3c0-20.4-7-37.6-21.1-51.7l-52.5-52.8c-14.1-14.4-31.4-21.7-52-21.7c-20.4,0-37.6,7.1-51.7,21.2
			l-37.5,37.2c-14.4,14.1-21.7,31.4-21.7,51.7c0,20.4,7.1,37.7,21.4,52l53,53c14.3,14.3,31.6,21.4,52,21.4c20.7,0,38.4-7.5,53-22.4
			l22.4,22.4c-14.9,14.6-22.4,32.4-22.4,53.3c0,20.4,7,37.6,21.1,51.7l52.5,52.8c14.1,14.4,31.4,21.7,52,21.7
			c20.4,0,37.6-7.1,51.7-21.2l37.5-37.2c14.4-14.1,21.7-31.4,21.7-51.7C557.9,430.5,550.8,413.2,536.5,398.9z M321.5,289.8
			c-0.5-0.5-2.1-2.1-4.7-4.8c-2.6-2.7-4.5-4.5-5.5-5.5c-1-0.9-2.6-2.2-4.8-3.8c-2.2-1.6-4.4-2.7-6.5-3.3c-2.1-0.6-4.5-0.9-7-0.9
			c-6.8,0-12.6,2.4-17.3,7.1s-7.1,10.5-7.1,17.3c0,2.5,0.3,4.9,0.9,7c0.6,2.1,1.7,4.3,3.3,6.5c1.6,2.2,2.9,3.8,3.8,4.8
			c0.9,1,2.8,2.8,5.5,5.5c2.7,2.6,4.3,4.2,4.8,4.7c-5.1,5.3-11.2,7.9-18.3,7.9c-7,0-12.7-2.3-17.3-6.9l-53-53
			c-4.8-4.8-7.1-10.5-7.1-17.3c0-6.6,2.4-12.3,7.1-17.1l37.5-37.2c4.9-4.6,10.7-6.9,17.3-6.9c6.8,0,12.6,2.4,17.3,7.1l52.5,52.8
			c4.8,4.8,7.1,10.5,7.1,17.3C329.9,278.3,327.1,284.5,321.5,289.8z M501.9,468l-37.5,37.2c-4.8,4.4-10.5,6.6-17.3,6.6
			c-7,0-12.7-2.3-17.3-6.9l-52.5-52.8c-4.8-4.8-7.1-10.5-7.1-17.3c0-7.1,2.8-13.3,8.4-18.6c0.5,0.5,2.1,2.1,4.7,4.8
			c2.6,2.7,4.5,4.5,5.5,5.5c1,0.9,2.6,2.2,4.8,3.8c2.2,1.6,4.4,2.7,6.5,3.3c2.1,0.6,4.5,0.9,7,0.9c6.8,0,12.6-2.4,17.3-7.1
			c4.8-4.8,7.1-10.5,7.1-17.3c0-2.5-0.3-4.9-0.9-7c-0.6-2.1-1.7-4.3-3.3-6.5c-1.6-2.2-2.9-3.8-3.8-4.8c-0.9-1-2.8-2.8-5.5-5.5
			c-2.7-2.6-4.3-4.2-4.8-4.7c5.1-5.4,11.2-8.2,18.3-8.2c6.8,0,12.6,2.4,17.3,7.1l53,53c4.8,4.8,7.1,10.5,7.1,17.3
			C509,457.5,506.6,463.2,501.9,468z"/>
	</g>
</g>
</svg>
